<svg id="Слой_1" data-name="Слой 1" xmlns="http://www.w3.org/2000/svg" viewBox="0 0 58.91 81.68"><defs><style>.cls-1{fill:#d7569c;}.cls-2{fill:#fff;}</style></defs><title>ico</title><path class="cls-1" d="M56.07,39.94l-6.83-20.7a6.7,6.7,0,0,0-6.36-4.6H16a6.7,6.7,0,0,0-6.36,4.6L2.84,39.94A6.69,6.69,0,0,0,2.5,42V53.22a6.68,6.68,0,0,0,3.23,5.72c0,0.07,0,.13,0,0.21a4.48,4.48,0,0,0,8.9.77H44.3a4.48,4.48,0,0,0,8.9-.77c0-.08,0-0.14,0-0.21a6.68,6.68,0,0,0,3.23-5.72V42A6.7,6.7,0,0,0,56.07,39.94Z"/><path class="cls-2" d="M8,36.27l5.61-17A2.5,2.5,0,0,1,16,17.53h27a2.5,2.5,0,0,1,2.37,1.71l5.61,17a2.5,2.5,0,0,1-2.37,3.28H10.36A2.5,2.5,0,0,1,8,36.27Z"/><path class="cls-2" d="M5.7,50.34c0-2.48,2-3,4.49-3s4.49,0.48,4.49,3A4.49,4.49,0,0,1,5.7,50.34Z"/><path class="cls-2" d="M44.23,50.34c0-2.48,2-3,4.49-3s4.49,0.48,4.49,3A4.49,4.49,0,0,1,44.23,50.34Z"/><rect class="cls-2" x="28.68" y="41.67" width="1.03" height="16.87" rx="0.52" ry="0.52" transform="translate(79.3 20.91) rotate(90)"/><rect class="cls-2" x="28.68" y="43.67" width="1.03" height="16.87" rx="0.52" ry="0.52" transform="translate(81.3 22.91) rotate(90)"/><rect class="cls-2" x="28.68" y="45.67" width="1.03" height="16.87" rx="0.52" ry="0.52" transform="translate(83.31 24.91) rotate(90)"/></svg>