<svg id="Слой_1" data-name="Слой 1" xmlns="http://www.w3.org/2000/svg" viewBox="0 0 58.91 81.68"><defs><style>.cls-1{fill:#d7569c;}.cls-2{fill:#fff;}</style></defs><title>ico</title><path class="cls-1" d="M24.83,7L11.25,28a4.16,4.16,0,0,0-.67,2.26V72.62a4.16,4.16,0,0,0,7.1,2.94l7.81-7.81a4.16,4.16,0,0,1,5.87,0l7.94,7.89a4.16,4.16,0,0,0,7.09-3V30.38a4.16,4.16,0,0,0-.69-2.29L31.8,6.95A4.16,4.16,0,0,0,24.83,7Z"/><rect class="cls-2" x="27.22" y="22.98" width="2.55" height="34.62" rx="1.27" ry="1.27"/><circle class="cls-2" cx="28.49" cy="55.58" r="3.35"/></svg>