<?xml version="1.0" encoding="utf-8"?>
<!-- Generator: Adobe Illustrator 19.2.0, SVG Export Plug-In . SVG Version: 6.00 Build 0)  -->
<svg version="1.1" id="Слой_1" xmlns="http://www.w3.org/2000/svg" xmlns:xlink="http://www.w3.org/1999/xlink" x="0px" y="0px"
	 viewBox="0 0 185.1 46.8" style="enable-background:new 0 0 185.1 46.8;" xml:space="preserve">
<style type="text/css">
	.st0{fill:#CF7EA6;}
	.st1{fill:#575756;}
	.st2{fill:#8C8C8C;}
</style>
<path class="st0" d="M44.8,6.9c-1-1.4-2.2-2.6-3.5-3.8c-1.3,1.1-2.5,2.4-3.5,3.8c-0.9,1.2-1.7,2.6-2.4,4C33.9,8,32,5.5,29.7,3.4
	c-0.4-0.3-0.7-0.6-1.1-1c-1.2-0.9-2.4-1.8-3.7-2.5c-1.3,0.7-2.5,1.5-3.7,2.5c-0.4,0.3-0.8,0.6-1.1,1c-2.3,2.1-4.2,4.6-5.6,7.4
	c-0.7-1.4-1.5-2.7-2.4-4c-1-1.4-2.2-2.6-3.5-3.8C7.2,4.3,6,5.5,5,6.9c-3.1,4.2-5,9.4-5,15s1.9,10.8,5,15c1,1.4,2.2,2.6,3.5,3.8
	c0.3,0.2,0.5,0.4,0.8,0.7c2.8,2.2,6.1,3.9,9.6,4.8c1.9,0.5,3.9,0.7,5.9,0.7s4-0.3,5.9-0.7c3.6-0.9,6.9-2.5,9.6-4.8
	c0.3-0.2,0.5-0.4,0.8-0.7c1.3-1.1,2.5-2.4,3.5-3.8c3.1-4.2,5-9.4,5-15C49.8,16.2,47.9,11.1,44.8,6.9z M5.1,21.9
	c0-4.1,1.2-7.9,3.4-11c2.1,3.2,3.4,7,3.4,11c0,4.1-1.2,7.9-3.4,11C6.4,29.8,5.1,26,5.1,21.9z M18.9,40.7c-2.6-0.8-4.9-2.1-6.9-3.9
	c0.9-1.2,1.7-2.6,2.4-4c1.4,2.8,3.3,5.3,5.6,7.4C19.7,40.5,19.3,40.6,18.9,40.7z M24.9,37.6C20.1,34,17,28.3,17,21.9
	c0-6.4,3.1-12.2,7.9-15.8c4.8,3.6,7.9,9.3,7.9,15.8C32.7,28.3,29.7,34,24.9,37.6z M30.8,40.7c-0.4-0.1-0.8-0.3-1.1-0.4
	c2.3-2.1,4.2-4.6,5.6-7.4c0.7,1.4,1.5,2.7,2.4,4C35.8,38.6,33.4,39.9,30.8,40.7z M41.3,32.9c-2.1-3.2-3.4-7-3.4-11s1.2-7.9,3.4-11
	c2.1,3.2,3.4,7,3.4,11S43.4,29.8,41.3,32.9z"/>
<path class="st1" d="M71,24.9l5.1-14.4c0.1-0.2,0.2-0.3,0.3-0.5c0.2-0.2,0.4-0.3,0.7-0.3h2.3c0.2,0,0.4,0.1,0.6,0.2
	c0.2,0.2,0.2,0.4,0.2,0.6c0,0,0,0.1,0,0.1s0,0.1-0.1,0.2l-6.8,19c-0.1,0.3-0.3,0.6-0.4,0.8c-0.2,0.2-0.4,0.3-0.7,0.3h-2.4
	c-0.3,0-0.6-0.1-0.7-0.3c-0.2-0.2-0.3-0.4-0.4-0.8l-6.8-19c0-0.1-0.1-0.2-0.1-0.2s0-0.1,0-0.1c0-0.2,0.1-0.4,0.2-0.6
	c0.2-0.2,0.4-0.2,0.6-0.2h2.3c0.3,0,0.5,0.1,0.7,0.3s0.3,0.3,0.3,0.5L71,24.9z"/>
<path class="st1" d="M87.1,30.9c-0.2,0-0.4-0.1-0.6-0.2c-0.2-0.2-0.2-0.4-0.2-0.6V10.5c0-0.2,0.1-0.4,0.2-0.6
	c0.2-0.2,0.4-0.2,0.6-0.2h2.5c0.2,0,0.4,0.1,0.6,0.2c0.2,0.2,0.2,0.4,0.2,0.6v19.6c0,0.2-0.1,0.4-0.2,0.6c-0.2,0.2-0.4,0.2-0.6,0.2
	H87.1z"/>
<path class="st1" d="M113.4,9.7c0.2,0,0.4,0.1,0.6,0.2c0.2,0.2,0.2,0.4,0.2,0.6v19.6c0,0.2-0.1,0.4-0.2,0.6
	c-0.2,0.2-0.4,0.2-0.6,0.2H111c-0.2,0-0.4-0.1-0.6-0.2c-0.2-0.2-0.2-0.4-0.2-0.6v-8H101v8c0,0.2-0.1,0.4-0.2,0.6
	c-0.2,0.2-0.4,0.2-0.6,0.2h-2.5c-0.2,0-0.4-0.1-0.6-0.2s-0.2-0.3-0.2-0.6V10.5c0-0.2,0.1-0.4,0.2-0.6c0.2-0.2,0.4-0.2,0.6-0.2h2.5
	c0.2,0,0.4,0.1,0.6,0.2c0.2,0.2,0.2,0.4,0.2,0.6v7.8h9.1v-7.8c0-0.2,0.1-0.4,0.2-0.6c0.2-0.2,0.4-0.2,0.6-0.2H113.4z"/>
<path class="st1" d="M120.1,17.6c0.1-1.1,0.3-2.2,0.7-3.2s0.9-1.9,1.6-2.6c0.7-0.7,1.6-1.3,2.7-1.8s2.4-0.7,3.9-0.7
	c1.5,0,2.8,0.2,3.8,0.6s2,1,2.7,1.8c0.7,0.7,1.3,1.6,1.7,2.6c0.4,1,0.6,2.1,0.7,3.2c0,0.4,0,0.8,0,1.3c0,0.5,0,0.9,0,1.4
	c0,0.5,0,1,0,1.4c0,0.5,0,0.9,0,1.3c-0.1,1.1-0.3,2.2-0.7,3.2c-0.4,1-0.9,1.9-1.6,2.6c-0.7,0.7-1.6,1.3-2.7,1.7
	c-1.1,0.4-2.4,0.6-3.9,0.6c-1.5,0-2.8-0.2-3.9-0.6s-2-1-2.7-1.7c-0.7-0.7-1.3-1.6-1.6-2.6c-0.4-1-0.6-2.1-0.7-3.2c0-0.4,0-0.8,0-1.3
	c0-0.5,0-0.9,0-1.4c0-0.5,0-1,0-1.4C120.1,18.4,120.1,18,120.1,17.6z M133.8,17.7c-0.1-1.5-0.6-2.6-1.4-3.4c-0.9-0.8-2-1.2-3.4-1.2
	c-1.4,0-2.5,0.4-3.4,1.2c-0.9,0.8-1.3,1.9-1.4,3.4c0,0.8-0.1,1.6-0.1,2.6s0,1.8,0.1,2.6c0.1,1.5,0.5,2.6,1.4,3.4
	c0.9,0.8,2,1.2,3.4,1.2c1.4,0,2.5-0.4,3.4-1.2c0.9-0.8,1.3-1.9,1.4-3.4c0-0.8,0.1-1.6,0.1-2.6S133.8,18.5,133.8,17.7z"/>
<path class="st1" d="M153.7,20.5l5.8-10c0.1-0.1,0.2-0.3,0.4-0.5c0.2-0.2,0.5-0.3,0.9-0.3h2.1c0.2,0,0.4,0.1,0.6,0.2
	c0.2,0.2,0.2,0.4,0.2,0.6v19.6c0,0.2-0.1,0.4-0.2,0.6c-0.2,0.2-0.4,0.2-0.6,0.2h-2.5c-0.2,0-0.4-0.1-0.6-0.2
	c-0.2-0.2-0.2-0.4-0.2-0.6V18.2l-3.9,6.8c-0.1,0.2-0.2,0.3-0.4,0.5c-0.2,0.2-0.4,0.3-0.7,0.3h-1.6c-0.3,0-0.5-0.1-0.7-0.3
	c-0.2-0.2-0.3-0.3-0.4-0.5l-3.9-6.8v11.8c0,0.2-0.1,0.4-0.2,0.6c-0.2,0.2-0.4,0.2-0.6,0.2h-2.5c-0.2,0-0.4-0.1-0.6-0.2
	c-0.2-0.2-0.2-0.4-0.2-0.6V10.5c0-0.2,0.1-0.4,0.2-0.6c0.2-0.2,0.4-0.2,0.6-0.2h2.1c0.4,0,0.7,0.1,0.9,0.3c0.2,0.2,0.3,0.4,0.4,0.5
	L153.7,20.5z"/>
<path class="st1" d="M184.3,27.1c0.2,0,0.4,0.1,0.6,0.2c0.2,0.2,0.2,0.4,0.2,0.6v2.1c0,0.2-0.1,0.4-0.2,0.6
	c-0.2,0.2-0.4,0.2-0.6,0.2H171c-0.2,0-0.4-0.1-0.6-0.2c-0.2-0.2-0.2-0.4-0.2-0.6V10.5c0-0.2,0.1-0.4,0.2-0.6
	c0.2-0.2,0.4-0.2,0.6-0.2h13c0.2,0,0.4,0.1,0.6,0.2c0.2,0.2,0.2,0.4,0.2,0.6v2.1c0,0.2-0.1,0.4-0.2,0.6c-0.2,0.2-0.4,0.2-0.6,0.2
	h-9.8v4.8h9.1c0.2,0,0.4,0.1,0.6,0.2c0.2,0.2,0.2,0.4,0.2,0.6v2.1c0,0.2-0.1,0.4-0.2,0.6c-0.2,0.2-0.4,0.2-0.6,0.2h-9.1v5H184.3z"/>
<g>
	<path class="st2" d="M66.6,42.9c0,0.2-0.1,0.3-0.3,0.3h-0.2c-0.2,0-0.3-0.1-0.3-0.3v-5.3h-2v5.3c0,0.2-0.1,0.3-0.3,0.3h-0.2
		c-0.2,0-0.3-0.1-0.3-0.3v-5.3h-1.1c-0.2,0-0.3-0.1-0.3-0.3v-0.2c0-0.2,0.1-0.3,0.3-0.3h1.1v-0.7c0-0.3,0-0.5,0.1-0.8
		c0.1-0.2,0.1-0.5,0.3-0.6s0.3-0.3,0.6-0.4c0.2-0.1,0.5-0.2,0.9-0.2h1.3c0.2,0,0.3,0.1,0.3,0.3v0.2c0,0.2-0.1,0.3-0.3,0.3H65
		c-0.4,0-0.7,0.1-0.9,0.3c-0.1,0.2-0.2,0.6-0.2,1v0.6h2.4c0.2,0,0.3,0.1,0.3,0.3V42.9z"/>
	<path class="st2" d="M73.9,42.9c0,0.2-0.1,0.3-0.3,0.3h-0.2c-0.2,0-0.3-0.1-0.3-0.3v-3.4c0-0.6-0.2-1.1-0.5-1.5
		c-0.3-0.4-0.8-0.5-1.4-0.5c-0.6,0-1,0.2-1.4,0.5c-0.3,0.4-0.5,0.9-0.5,1.5v3.4c0,0.2-0.1,0.3-0.3,0.3h-0.2c-0.2,0-0.3-0.1-0.3-0.3
		v-5.7c0-0.2,0.1-0.3,0.3-0.3h0.2c0.2,0,0.3,0.1,0.3,0.3v0.6c0.2-0.3,0.5-0.5,0.8-0.7c0.3-0.2,0.7-0.3,1.2-0.3
		c0.4,0,0.8,0.1,1.1,0.2c0.3,0.1,0.6,0.3,0.8,0.6c0.2,0.2,0.4,0.5,0.5,0.9c0.1,0.3,0.2,0.7,0.2,1.1V42.9z"/>
	<path class="st2" d="M78,36.8c0.5,0,0.9,0.1,1.2,0.3c0.3,0.2,0.6,0.4,0.8,0.7v-2.9c0-0.2,0.1-0.3,0.3-0.3h0.2
		c0.2,0,0.3,0.1,0.3,0.3v8c0,0.2-0.1,0.3-0.3,0.3h-0.2c-0.2,0-0.3-0.1-0.3-0.3v-0.6c-0.2,0.3-0.5,0.5-0.8,0.7
		c-0.3,0.2-0.7,0.3-1.2,0.3c-0.5,0-0.9-0.1-1.2-0.3c-0.3-0.2-0.6-0.4-0.8-0.7c-0.2-0.3-0.4-0.6-0.4-0.9c-0.1-0.3-0.1-0.7-0.2-1
		c0-0.2,0-0.4,0-0.7c0-0.4,0.1-0.7,0.2-1c0.1-0.3,0.2-0.7,0.4-0.9c0.2-0.3,0.5-0.5,0.8-0.7C77.2,36.9,77.6,36.8,78,36.8z M80.1,40.5
		c0-0.1,0-0.3,0-0.5c0-0.2,0-0.3,0-0.5c0-0.2-0.1-0.5-0.1-0.7c-0.1-0.2-0.2-0.5-0.4-0.7c-0.2-0.2-0.4-0.4-0.6-0.5
		c-0.2-0.1-0.5-0.2-0.9-0.2c-0.4,0-0.7,0.1-0.9,0.2c-0.2,0.1-0.4,0.3-0.6,0.5c-0.1,0.2-0.3,0.4-0.3,0.7c-0.1,0.3-0.1,0.5-0.1,0.8
		c0,0.2,0,0.4,0,0.7c0,0.3,0,0.6,0.1,0.8c0.1,0.3,0.2,0.5,0.3,0.7c0.1,0.2,0.3,0.4,0.6,0.5c0.2,0.1,0.5,0.2,0.9,0.2
		c0.3,0,0.6-0.1,0.9-0.2c0.2-0.1,0.4-0.3,0.6-0.5c0.2-0.2,0.3-0.4,0.4-0.7C80,41,80.1,40.7,80.1,40.5z"/>
	<path class="st2" d="M87.2,45.3c0,0-0.1,0.1-0.1,0.1c0,0-0.1,0.1-0.2,0.1h-0.2c-0.1,0-0.1,0-0.2-0.1c0,0-0.1-0.1-0.1-0.2
		c0,0,0-0.1,0.1-0.2l0.9-2.2l-2.3-5.4c0-0.1-0.1-0.2-0.1-0.2c0-0.1,0-0.1,0.1-0.2c0,0,0.1-0.1,0.2-0.1h0.3c0.1,0,0.1,0,0.2,0.1
		c0,0,0.1,0.1,0.1,0.1l2,4.8l2.1-4.8c0,0,0.1-0.1,0.1-0.1c0,0,0.1-0.1,0.2-0.1h0.2c0.1,0,0.1,0,0.2,0.1c0,0,0.1,0.1,0.1,0.2
		c0,0,0,0.1-0.1,0.2L87.2,45.3z"/>
	<path class="st2" d="M94.2,36.8c0.4,0,0.8,0.1,1.2,0.2c0.3,0.1,0.6,0.3,0.8,0.6c0.2,0.2,0.4,0.5,0.5,0.9c0.1,0.3,0.2,0.7,0.2,1.1
		c0,0.1,0,0.1,0,0.2c0,0.1,0,0.2,0,0.3c0,0.1,0,0.2,0,0.3c0,0.1,0,0.2,0,0.2c0,0.4-0.1,0.7-0.2,1.1c-0.1,0.3-0.3,0.6-0.5,0.9
		c-0.2,0.2-0.5,0.4-0.8,0.6c-0.3,0.1-0.7,0.2-1.2,0.2s-0.8-0.1-1.2-0.2c-0.3-0.1-0.6-0.3-0.8-0.6c-0.2-0.2-0.4-0.5-0.5-0.9
		c-0.1-0.3-0.2-0.7-0.2-1.1c0-0.1,0-0.1,0-0.2c0-0.1,0-0.2,0-0.3c0-0.1,0-0.2,0-0.3s0-0.2,0-0.2c0-0.4,0.1-0.7,0.2-1.1
		c0.1-0.3,0.3-0.6,0.5-0.9c0.2-0.2,0.5-0.4,0.8-0.6C93.4,36.9,93.8,36.8,94.2,36.8z M96.2,39.6c0-0.7-0.2-1.2-0.6-1.6
		c-0.4-0.4-0.8-0.5-1.4-0.5c-0.6,0-1,0.2-1.4,0.5c-0.4,0.4-0.5,0.9-0.6,1.6c0,0.1,0,0.3,0,0.4c0,0.2,0,0.3,0,0.4
		c0,0.7,0.2,1.2,0.6,1.6c0.4,0.4,0.8,0.5,1.4,0.5c0.6,0,1-0.2,1.4-0.5c0.4-0.4,0.5-0.9,0.6-1.6c0-0.1,0-0.3,0-0.4
		C96.2,39.9,96.2,39.7,96.2,39.6z"/>
	<path class="st2" d="M98.5,37.2c0-0.2,0.1-0.3,0.3-0.3H99c0.2,0,0.3,0.1,0.3,0.3v3.4c0,1.4,0.6,2.1,1.8,2.1c0.6,0,1-0.2,1.4-0.5
		c0.3-0.4,0.5-0.9,0.5-1.5v-3.4c0-0.2,0.1-0.3,0.3-0.3h0.2c0.2,0,0.3,0.1,0.3,0.3v5.7c0,0.2-0.1,0.3-0.3,0.3h-0.2
		c-0.2,0-0.3-0.1-0.3-0.3v-0.6c-0.2,0.3-0.5,0.5-0.8,0.7c-0.3,0.2-0.7,0.3-1.2,0.3c-0.4,0-0.8-0.1-1.1-0.2c-0.3-0.1-0.6-0.3-0.8-0.6
		c-0.2-0.2-0.4-0.5-0.4-0.9c-0.1-0.3-0.1-0.7-0.1-1.1V37.2z"/>
	<path class="st2" d="M108.1,36.9h0.4c0.2,0,0.3,0.1,0.3,0.3v0.2c0,0.2-0.1,0.3-0.3,0.3H108c-0.5,0-0.9,0.1-1.2,0.4
		c-0.3,0.3-0.4,0.7-0.4,1.1v3.7c0,0.1,0,0.1-0.1,0.2c-0.1,0-0.1,0.1-0.2,0.1H106c-0.2,0-0.3-0.1-0.3-0.3v-5.7c0-0.1,0-0.1,0.1-0.2
		c0-0.1,0.1-0.1,0.2-0.1h0.2c0.1,0,0.1,0,0.2,0.1c0.1,0.1,0.1,0.1,0.1,0.2v0.6C106.7,37.2,107.3,36.9,108.1,36.9z"/>
	<path class="st2" d="M115.5,43.3c-0.5,0-0.9-0.1-1.2-0.3c-0.3-0.2-0.6-0.4-0.8-0.7v2.9c0,0.2-0.1,0.3-0.3,0.3H113
		c-0.2,0-0.3-0.1-0.3-0.3v-8c0-0.2,0.1-0.3,0.3-0.3h0.2c0.2,0,0.3,0.1,0.3,0.3v0.6c0.2-0.3,0.5-0.5,0.8-0.7c0.3-0.2,0.7-0.3,1.2-0.3
		c0.5,0,0.9,0.1,1.2,0.2s0.6,0.4,0.8,0.7c0.2,0.3,0.3,0.6,0.4,0.9c0.1,0.3,0.1,0.7,0.2,1c0,0.1,0,0.3,0,0.4c0,0.1,0,0.3,0,0.4
		c0,0.4-0.1,0.7-0.2,1c-0.1,0.3-0.2,0.6-0.4,0.9c-0.2,0.3-0.5,0.5-0.8,0.7C116.4,43.2,116,43.3,115.5,43.3z M113.5,39.6
		c0,0.1,0,0.3,0,0.5c0,0.2,0,0.3,0,0.5c0,0.2,0.1,0.5,0.1,0.7c0.1,0.2,0.2,0.5,0.4,0.7c0.2,0.2,0.4,0.4,0.6,0.5
		c0.2,0.1,0.5,0.2,0.9,0.2c0.4,0,0.7-0.1,0.9-0.2c0.2-0.1,0.4-0.3,0.6-0.5c0.1-0.2,0.3-0.4,0.3-0.7c0.1-0.3,0.1-0.5,0.1-0.8
		c0-0.2,0-0.4,0-0.7c0-0.3-0.1-0.6-0.1-0.8c-0.1-0.3-0.2-0.5-0.3-0.7c-0.1-0.2-0.3-0.4-0.6-0.5c-0.2-0.1-0.5-0.2-0.9-0.2
		c-0.3,0-0.6,0.1-0.9,0.2c-0.2,0.1-0.4,0.3-0.6,0.5c-0.2,0.2-0.3,0.4-0.4,0.7C113.6,39.1,113.5,39.4,113.5,39.6z"/>
	<path class="st2" d="M119.5,39.6c0-0.4,0.1-0.8,0.2-1.1c0.1-0.3,0.3-0.6,0.5-0.9c0.2-0.2,0.5-0.4,0.8-0.6c0.3-0.1,0.7-0.2,1.1-0.2
		c0.8,0,1.5,0.3,2,0.8c0.5,0.5,0.7,1.3,0.7,2.3v0.2c0,0.1,0,0.1-0.1,0.2c-0.1,0-0.1,0.1-0.2,0.1h-4.3v0.1c0,0.3,0.1,0.5,0.2,0.8
		c0.1,0.3,0.2,0.5,0.4,0.7c0.2,0.2,0.4,0.4,0.6,0.5c0.2,0.1,0.5,0.2,0.8,0.2c0.3,0,0.5,0,0.7-0.1c0.2-0.1,0.4-0.1,0.5-0.2
		s0.2-0.2,0.3-0.3c0.1-0.1,0.1-0.2,0.2-0.2c0.1-0.1,0.1-0.2,0.2-0.2c0,0,0.1,0,0.2,0h0.2c0.1,0,0.1,0,0.2,0.1c0.1,0,0.1,0.1,0.1,0.2
		c0,0.1-0.1,0.3-0.2,0.4c-0.1,0.2-0.3,0.3-0.5,0.5s-0.5,0.3-0.8,0.4c-0.3,0.1-0.7,0.2-1,0.2c-0.4,0-0.7-0.1-1.1-0.2
		c-0.3-0.1-0.6-0.3-0.8-0.6c-0.2-0.2-0.4-0.5-0.5-0.9c-0.1-0.3-0.2-0.7-0.2-1.1c0-0.1,0-0.3,0-0.5C119.5,39.8,119.5,39.7,119.5,39.6
		z M120.2,39.7h3.9v0c0-0.3,0-0.6-0.1-0.8c-0.1-0.3-0.2-0.5-0.4-0.7c-0.2-0.2-0.4-0.3-0.6-0.5c-0.2-0.1-0.5-0.2-0.8-0.2
		c-0.3,0-0.6,0.1-0.8,0.2c-0.2,0.1-0.4,0.3-0.6,0.5c-0.2,0.2-0.3,0.4-0.4,0.7C120.3,39.1,120.2,39.3,120.2,39.7L120.2,39.7z"/>
	<path class="st2" d="M128.8,36.9h0.4c0.2,0,0.3,0.1,0.3,0.3v0.2c0,0.2-0.1,0.3-0.3,0.3h-0.5c-0.5,0-0.9,0.1-1.2,0.4
		c-0.3,0.3-0.4,0.7-0.4,1.1v3.7c0,0.1,0,0.1-0.1,0.2s-0.1,0.1-0.2,0.1h-0.2c-0.2,0-0.3-0.1-0.3-0.3v-5.7c0-0.1,0-0.1,0.1-0.2
		c0-0.1,0.1-0.1,0.2-0.1h0.2c0.1,0,0.1,0,0.2,0.1c0.1,0.1,0.1,0.1,0.1,0.2v0.6C127.5,37.2,128,36.9,128.8,36.9z"/>
	<path class="st2" d="M132,36.9h1.6c0.2,0,0.3,0.1,0.3,0.3v0.2c0,0.2-0.1,0.3-0.3,0.3H132v5.3c0,0.2-0.1,0.3-0.3,0.3h-0.2
		c-0.2,0-0.3-0.1-0.3-0.3v-5.3h-1.1c-0.2,0-0.3-0.1-0.3-0.3v-0.2c0-0.2,0.1-0.3,0.3-0.3h1.1v-0.7c0-0.3,0-0.5,0.1-0.8
		c0.1-0.2,0.1-0.5,0.3-0.6c0.1-0.2,0.3-0.3,0.6-0.4c0.2-0.1,0.5-0.2,0.9-0.2h0.6c0.2,0,0.3,0.1,0.3,0.3v0.2c0,0.2-0.1,0.3-0.3,0.3
		h-0.6c-0.4,0-0.7,0.1-0.9,0.3c-0.1,0.2-0.2,0.6-0.2,1V36.9z"/>
	<path class="st2" d="M134.6,39.6c0-0.4,0.1-0.8,0.2-1.1c0.1-0.3,0.3-0.6,0.5-0.9c0.2-0.2,0.5-0.4,0.8-0.6c0.3-0.1,0.7-0.2,1.1-0.2
		c0.8,0,1.5,0.3,2,0.8c0.5,0.5,0.7,1.3,0.7,2.3v0.2c0,0.1,0,0.1-0.1,0.2c-0.1,0-0.1,0.1-0.2,0.1h-4.3v0.1c0,0.3,0.1,0.5,0.2,0.8
		c0.1,0.3,0.2,0.5,0.4,0.7c0.2,0.2,0.4,0.4,0.6,0.5c0.2,0.1,0.5,0.2,0.8,0.2c0.3,0,0.5,0,0.7-0.1c0.2-0.1,0.4-0.1,0.5-0.2
		c0.1-0.1,0.2-0.2,0.3-0.3c0.1-0.1,0.1-0.2,0.2-0.2c0.1-0.1,0.1-0.2,0.2-0.2c0,0,0.1,0,0.2,0h0.2c0.1,0,0.1,0,0.2,0.1
		c0.1,0,0.1,0.1,0.1,0.2c0,0.1-0.1,0.3-0.2,0.4c-0.1,0.2-0.3,0.3-0.5,0.5s-0.5,0.3-0.8,0.4c-0.3,0.1-0.7,0.2-1,0.2
		c-0.4,0-0.7-0.1-1.1-0.2c-0.3-0.1-0.6-0.3-0.8-0.6c-0.2-0.2-0.4-0.5-0.5-0.9c-0.1-0.3-0.2-0.7-0.2-1.1c0-0.1,0-0.3,0-0.5
		C134.5,39.8,134.6,39.7,134.6,39.6z M135.3,39.7h3.9v0c0-0.3,0-0.6-0.1-0.8c-0.1-0.3-0.2-0.5-0.4-0.7c-0.2-0.2-0.4-0.3-0.6-0.5
		c-0.2-0.1-0.5-0.2-0.8-0.2c-0.3,0-0.6,0.1-0.8,0.2c-0.2,0.1-0.4,0.3-0.6,0.5c-0.2,0.2-0.3,0.4-0.4,0.7
		C135.3,39.1,135.3,39.3,135.3,39.7L135.3,39.7z"/>
	<path class="st2" d="M141.9,39.6c0,0.1,0,0.3,0,0.4c0,0.2,0,0.3,0,0.4c0,0.8,0.2,1.3,0.6,1.6c0.4,0.3,0.8,0.5,1.4,0.5
		c0.4,0,0.8-0.1,1.1-0.3c0.3-0.2,0.5-0.5,0.7-1c0-0.1,0.1-0.2,0.1-0.2c0,0,0.1-0.1,0.2-0.1h0.2c0.1,0,0.1,0,0.2,0.1
		c0.1,0,0.1,0.1,0.1,0.2c0,0.2-0.1,0.4-0.2,0.7c-0.1,0.2-0.3,0.4-0.5,0.6s-0.5,0.3-0.8,0.5c-0.3,0.1-0.7,0.2-1.1,0.2
		c-0.9,0-1.5-0.2-2-0.7c-0.5-0.5-0.7-1.2-0.7-2c0-0.1,0-0.3,0-0.5c0-0.2,0-0.4,0-0.5c0-0.9,0.3-1.5,0.7-2c0.5-0.5,1.1-0.7,2-0.7
		c0.4,0,0.8,0.1,1.1,0.2c0.3,0.1,0.6,0.3,0.8,0.5s0.4,0.4,0.5,0.6c0.1,0.2,0.2,0.4,0.2,0.7c0,0.1,0,0.1-0.1,0.2
		c-0.1,0-0.1,0.1-0.2,0.1H146c-0.1,0-0.1,0-0.2-0.1c0,0-0.1-0.1-0.1-0.2c-0.2-0.5-0.4-0.8-0.7-1c-0.3-0.2-0.7-0.3-1.1-0.3
		c-0.5,0-1,0.2-1.4,0.5C142.2,38.3,142,38.9,141.9,39.6z"/>
	<path class="st2" d="M149.2,41.1c0,0.4,0.1,0.8,0.2,1c0.1,0.2,0.4,0.4,0.8,0.4h0.7c0.2,0,0.3,0.1,0.3,0.3v0.2
		c0,0.2-0.1,0.3-0.3,0.3h-0.7c-0.3,0-0.6-0.1-0.8-0.2c-0.2-0.1-0.4-0.2-0.5-0.4c-0.1-0.2-0.2-0.4-0.3-0.6c-0.1-0.2-0.1-0.5-0.1-0.8
		v-3.6h-0.9c-0.2,0-0.3-0.1-0.3-0.3v-0.2c0-0.2,0.1-0.3,0.3-0.3h0.9v-2c0-0.2,0.1-0.3,0.3-0.3h0.2c0.2,0,0.3,0.1,0.3,0.3v2h1.5
		c0.2,0,0.3,0.1,0.3,0.3v0.2c0,0.2-0.1,0.3-0.3,0.3h-1.5V41.1z"/>
	<path class="st2" d="M156.2,37.7c0.2-0.3,0.5-0.5,0.8-0.7c0.3-0.2,0.7-0.3,1.2-0.3c0.4,0,0.8,0.1,1.1,0.2c0.3,0.1,0.6,0.3,0.8,0.6
		c0.2,0.2,0.4,0.5,0.5,0.9s0.2,0.7,0.2,1.1v3.4c0,0.2-0.1,0.3-0.3,0.3h-0.2c-0.2,0-0.3-0.1-0.3-0.3v-3.4c0-0.6-0.2-1.1-0.5-1.5
		c-0.3-0.4-0.8-0.5-1.4-0.5c-0.6,0-1,0.2-1.4,0.5c-0.3,0.4-0.5,0.9-0.5,1.5v3.4c0,0.2-0.1,0.3-0.3,0.3h-0.2c-0.2,0-0.3-0.1-0.3-0.3
		v-8c0-0.2,0.1-0.3,0.3-0.3h0.2c0.2,0,0.3,0.1,0.3,0.3V37.7z"/>
	<path class="st2" d="M165,36.8c0.4,0,0.8,0.1,1.2,0.2c0.3,0.1,0.6,0.3,0.8,0.6c0.2,0.2,0.4,0.5,0.5,0.9c0.1,0.3,0.2,0.7,0.2,1.1
		c0,0.1,0,0.1,0,0.2c0,0.1,0,0.2,0,0.3c0,0.1,0,0.2,0,0.3c0,0.1,0,0.2,0,0.2c0,0.4-0.1,0.7-0.2,1.1c-0.1,0.3-0.3,0.6-0.5,0.9
		c-0.2,0.2-0.5,0.4-0.8,0.6c-0.3,0.1-0.7,0.2-1.2,0.2s-0.8-0.1-1.2-0.2c-0.3-0.1-0.6-0.3-0.8-0.6c-0.2-0.2-0.4-0.5-0.5-0.9
		c-0.1-0.3-0.2-0.7-0.2-1.1c0-0.1,0-0.1,0-0.2c0-0.1,0-0.2,0-0.3c0-0.1,0-0.2,0-0.3c0-0.1,0-0.2,0-0.2c0-0.4,0.1-0.7,0.2-1.1
		c0.1-0.3,0.3-0.6,0.5-0.9c0.2-0.2,0.5-0.4,0.8-0.6C164.2,36.9,164.6,36.8,165,36.8z M167,39.6c0-0.7-0.2-1.2-0.6-1.6
		c-0.4-0.4-0.8-0.5-1.4-0.5c-0.6,0-1,0.2-1.4,0.5c-0.4,0.4-0.5,0.9-0.6,1.6c0,0.1,0,0.3,0,0.4c0,0.2,0,0.3,0,0.4
		c0,0.7,0.2,1.2,0.6,1.6c0.4,0.4,0.8,0.5,1.4,0.5c0.6,0,1-0.2,1.4-0.5c0.4-0.4,0.5-0.9,0.6-1.6c0-0.1,0-0.3,0-0.4
		C167,39.9,167,39.7,167,39.6z"/>
	<path class="st2" d="M170.1,37.6c0.2-0.3,0.4-0.5,0.7-0.6c0.3-0.1,0.6-0.2,1-0.2c0.5,0,0.9,0.1,1.2,0.3c0.3,0.2,0.6,0.5,0.8,0.8
		c0.2-0.3,0.5-0.6,0.8-0.8c0.4-0.2,0.8-0.3,1.2-0.3c0.3,0,0.6,0.1,0.9,0.2c0.3,0.1,0.5,0.3,0.7,0.5c0.2,0.2,0.4,0.5,0.5,0.8
		c0.1,0.3,0.2,0.7,0.2,1.1v3.5c0,0.2-0.1,0.3-0.3,0.3h-0.2c-0.2,0-0.3-0.1-0.3-0.3v-3.4c0-0.4,0-0.7-0.1-1c-0.1-0.3-0.2-0.5-0.4-0.6
		c-0.2-0.2-0.3-0.3-0.5-0.3c-0.2-0.1-0.4-0.1-0.6-0.1c-0.2,0-0.4,0-0.6,0.1c-0.2,0.1-0.4,0.2-0.5,0.3c-0.2,0.2-0.3,0.4-0.4,0.6
		c-0.1,0.3-0.1,0.6-0.1,1v3.4c0,0.2-0.1,0.3-0.3,0.3h-0.2c-0.2,0-0.3-0.1-0.3-0.3v-3.4c0-0.4,0-0.7-0.1-1c-0.1-0.3-0.2-0.5-0.4-0.6
		c-0.2-0.2-0.3-0.3-0.5-0.3c-0.2-0.1-0.4-0.1-0.6-0.1c-0.2,0-0.4,0-0.6,0.1c-0.2,0.1-0.4,0.2-0.5,0.3c-0.2,0.2-0.3,0.4-0.4,0.6
		c-0.1,0.3-0.1,0.6-0.1,1v3.4c0,0.2-0.1,0.3-0.3,0.3h-0.2c-0.2,0-0.3-0.1-0.3-0.3v-5.7c0-0.2,0.1-0.3,0.3-0.3h0.2
		c0.2,0,0.3,0.1,0.3,0.3V37.6z"/>
	<path class="st2" d="M179.7,39.6c0-0.4,0.1-0.8,0.2-1.1c0.1-0.3,0.3-0.6,0.5-0.9c0.2-0.2,0.5-0.4,0.8-0.6c0.3-0.1,0.7-0.2,1.1-0.2
		c0.8,0,1.5,0.3,2,0.8c0.5,0.5,0.7,1.3,0.7,2.3v0.2c0,0.1,0,0.1-0.1,0.2c-0.1,0-0.1,0.1-0.2,0.1h-4.3v0.1c0,0.3,0.1,0.5,0.2,0.8
		c0.1,0.3,0.2,0.5,0.4,0.7c0.2,0.2,0.4,0.4,0.6,0.5c0.2,0.1,0.5,0.2,0.8,0.2c0.3,0,0.5,0,0.7-0.1c0.2-0.1,0.4-0.1,0.5-0.2
		c0.1-0.1,0.2-0.2,0.3-0.3c0.1-0.1,0.1-0.2,0.2-0.2c0.1-0.1,0.1-0.2,0.2-0.2c0,0,0.1,0,0.2,0h0.2c0.1,0,0.1,0,0.2,0.1
		c0.1,0,0.1,0.1,0.1,0.2c0,0.1-0.1,0.3-0.2,0.4c-0.1,0.2-0.3,0.3-0.5,0.5s-0.5,0.3-0.8,0.4c-0.3,0.1-0.7,0.2-1,0.2
		c-0.4,0-0.7-0.1-1.1-0.2c-0.3-0.1-0.6-0.3-0.8-0.6c-0.2-0.2-0.4-0.5-0.5-0.9c-0.1-0.3-0.2-0.7-0.2-1.1c0-0.1,0-0.3,0-0.5
		C179.7,39.8,179.7,39.7,179.7,39.6z M180.5,39.7h3.9v0c0-0.3,0-0.6-0.1-0.8c-0.1-0.3-0.2-0.5-0.4-0.7c-0.2-0.2-0.4-0.3-0.6-0.5
		c-0.2-0.1-0.5-0.2-0.8-0.2c-0.3,0-0.6,0.1-0.8,0.2c-0.2,0.1-0.4,0.3-0.6,0.5c-0.2,0.2-0.3,0.4-0.4,0.7
		C180.5,39.1,180.5,39.3,180.5,39.7L180.5,39.7z"/>
</g>
</svg>
